<svg width="289" height="45" viewBox="0 0 289 45" fill="none" xmlns="http://www.w3.org/2000/svg">
<path fill-rule="evenodd" clip-rule="evenodd" d="M0 5.09473V6.20626H3.33461V43.2575H0V44.3691H12.9679V41.7755C12.9679 41.6453 13.1539 41.8676 13.4585 42.2315C14.0205 42.9031 14.9863 44.0573 15.932 44.3691C16.6731 44.6134 21.9727 44.7396 22.9718 44.3691C27.6398 42.638 29.641 40.664 29.641 36.9588C29.641 33.8474 30.0048 30.5712 29.641 25.8434C29.2989 21.3973 26.6769 19.6287 22.9718 19.1742C20.7516 18.9019 19.435 18.9557 17.0436 19.1742C15.5615 19.3096 14.2458 21.367 13.6841 22.1394C13.4594 22.4483 13.3385 22.6147 13.3385 22.5088V5.09473H0ZM13.709 39.9229V25.1024C14.0795 22.8793 15.4156 21.8043 17.0436 21.3973C18.5256 21.0268 19.2667 22.5088 19.2667 24.3614V41.405C18.5256 42.5165 18.1551 42.887 16.6731 42.887C15.5615 42.887 14.45 41.7755 13.709 39.9229Z" fill="#2B3336"/>
<path d="M31.1232 20.6562V19.1742H43.6675V23.2498C44.937 21.2971 46.2502 19.1742 47.726 19.1742H52.5224C54.3672 19.1742 55.843 20.2857 56.1451 22.3833C56.345 23.7713 56.4045 24.6873 56.1451 26.0884C55.843 27.7199 54.7361 29.5486 53.6292 29.5486H50.3087C49.2018 29.5486 47.3571 28.0665 46.9881 27.3255C46.5545 26.188 46.2541 24.5418 47.3571 23.6203C48.254 22.871 48.8028 23.1855 49.5708 23.2498C49.9397 23.2808 50.3087 21.6203 49.2018 21.3973C48.2283 21.2011 47.6764 21.1761 46.6192 22.1383C45.3103 23.5273 45.0483 24.1636 44.0365 26.2139V43.2575H47.3571V44.3691H31.1232V43.2575H33.7058V20.6562H31.1232Z" fill="#2B3336"/>
<path fill-rule="evenodd" clip-rule="evenodd" d="M71.1682 44.6239C78.4941 44.6239 84.0745 42.0415 84.0745 31.7123C84.0745 23.718 80.8479 19.1697 71.1682 19.1697C62.9225 19.1697 58.6204 23.5965 58.6204 31.7123C58.6204 42.0415 63.998 44.255 71.1682 44.6239ZM74.9458 32.2273V32.2196V32.2157C74.9458 26.2377 74.9458 21.3923 71.5068 21.3923C68.0671 21.3923 68.0663 26.2398 68.0663 32.2196C68.0663 38.1993 68.0663 42.7187 71.5068 42.7187C74.9458 42.7187 74.9458 38.2032 74.9458 32.2273Z" fill="#2B3336"/>
<path d="M100.038 10.2819L89.6641 12.505L90.0346 19.5447H86.7V20.6563H90.0346L89.6641 39.5524C89.6641 40.664 92.6282 43.9986 94.8512 44.3691C97.4448 44.8014 99.1704 44.8952 102.261 44.3691C103.744 44.1169 107.078 40.664 107.078 39.9229L107.449 36.5883H105.967C105.967 36.5883 105.967 39.1819 105.596 39.9229C105.226 40.664 103.12 42.3987 103.12 42.3987C102.261 42.887 100.156 42.3987 100.156 41.2871L100.038 20.6563H106.708V19.5447H100.038V10.2819Z" fill="#2B3336"/>
<path fill-rule="evenodd" clip-rule="evenodd" d="M109.73 36.4606C109.648 37.9774 109.657 38.8278 109.73 40.3445C109.73 41.4421 112.655 44.3691 113.751 44.3691C117.5 44.8364 118.589 44.6418 120.697 44.3691C121.586 44.1439 123.256 41.4421 123.256 41.4421C123.256 41.4421 124.921 44.1439 127.277 44.3691C129.358 44.5679 132.395 44.7396 133.492 44.1439C134.184 43.7682 137.148 41.0762 137.148 40.1193V35.9541H135.32V39.6128C135.32 40.7104 135.086 41.001 134.589 41.4421C133.769 41.8112 132.395 41.0762 132.395 40.3445L132.395 25.2552C132.395 23.1487 130.202 19.4013 127.277 19.4013C127.277 19.4013 116.874 19.1742 116.508 19.1742C116.142 19.1742 114.68 19.9059 114.68 19.9059C113.386 20.5876 111.891 22.4813 111.192 23.8804C110.844 24.577 110.988 25.4982 111.165 26.6338C111.174 26.6911 111.183 26.749 111.192 26.8074C111.362 27.905 112.389 29.2561 114.117 29.7343C115.861 29.8318 116.419 29.7973 117.407 29.7343C118.208 29.6832 119.966 27.905 120.332 26.8074C120.332 26.8074 120.944 24.3484 119.966 23.5146C119.305 22.951 118.138 23.1487 118.138 23.1487V20.9535C118.504 20.2217 119.06 20.1906 119.6 20.2217H121.428C122.357 20.2217 122.525 21.6852 122.525 22.4169V31.5637C121.823 31.5907 121.178 31.6098 120.58 31.6275C117.819 31.7094 116.046 31.7619 114.117 32.4361C111.594 33.1933 109.73 34.4906 109.73 36.4606ZM119.6 41.4421L119.6 35.5882C119.6 34.1247 121.208 32.6613 122.525 32.6613C123.842 32.6613 122.525 39.9786 122.525 39.9786C122.175 41.2955 121.794 42.1162 121.063 42.1738C120.457 42.2216 119.6 42.1739 119.6 41.4421Z" fill="#2B3336"/>
<path d="M140.054 44.3691V34.7358H141.483C143.365 39.1709 146.128 42.5165 147.557 42.5165H152.916C153.63 42.5165 154.856 41.405 155.06 40.664C155.299 39.7958 155.258 39.6796 155.06 38.8114C154.806 37.6999 153.988 36.9588 152.916 36.5883L146.485 34.7358C143.209 33.665 140.411 31.0306 140.411 29.1781V24.7319C140.411 21.0268 143.269 19.9152 145.77 18.8037C147.914 18.0627 150.058 17.6922 152.201 18.4332C152.201 18.4332 155.53 20.0418 156.489 19.5447C157.203 19.1742 157.561 17.6922 157.561 17.6922H158.632V26.214H157.561C155.996 22.6568 154.345 20.6563 152.201 19.9152C150.248 19.3246 149.153 19.2634 147.199 19.9152C146.128 20.2858 145.413 21.0268 145.413 22.1383V23.2499C145.413 23.9909 145.77 23.9909 146.485 24.3614L153.63 26.5845C156.474 27.8521 160.062 30.2896 160.062 32.5127V37.6999C160.062 41.0345 156.38 43.1163 153.63 44.3691H147.557C147.557 44.3691 143.984 41.7755 143.269 42.146C142.295 42.6514 141.483 44.3691 141.483 44.3691H140.054Z" fill="#2B3336"/>
<path fill-rule="evenodd" clip-rule="evenodd" d="M169.121 23.0023C167.805 22.2109 164.72 20.3553 164.101 17.7846C163.682 16.0483 163.625 15.0748 164.101 13.3385C165.052 9.86686 167.435 7.03974 171.511 7.03974H178.551C179.255 7.03974 179.811 7.33758 180.218 7.55561C180.453 7.68149 180.638 7.78077 180.774 7.78077C181.144 7.78077 180.774 3.33461 180.774 3.33461C180.774 1.85256 182.997 0 184.479 0H187.813C189.295 0 189.961 1.6369 190.407 3.33461C190.754 4.65546 188.925 7.41025 188.184 7.41025H185.22C184.479 7.41025 183.899 6.45262 183.738 5.55769C183.738 5.55769 183.593 4.85549 183.738 4.44615C183.872 4.06686 184.315 3.88027 184.682 3.72567C184.975 3.6022 185.22 3.49914 185.22 3.33461C185.22 2.72073 184.108 2.22308 184.108 2.22308C182.997 1.85256 182.256 2.59359 182.256 4.07564V8.52179C182.256 8.77992 182.705 9.12795 183.291 9.58156C184.387 10.4302 185.961 11.6483 185.961 13.3385V18.5256C185.961 21.8603 181.885 23.7128 180.033 23.7128L171.14 24.0833C171.14 24.0833 169.288 24.8058 169.288 25.9359C169.288 26.6769 170.029 26.6769 170.029 26.6769H182.626C185.22 26.6769 189.295 29.641 189.295 32.2346V38.5333C189.295 41.4974 182.256 44.832 180.033 44.832H168.176C165.212 44.832 162.248 42.609 162.248 41.1269V37.7923C162.248 36.3102 163.73 35.5692 165.583 35.5692C167.435 35.5692 168.504 36.2679 168.917 36.6808C169.279 37.0428 169.173 37.9683 169.053 39.013C168.987 39.5827 168.917 40.1878 168.917 40.7564C168.917 42.2385 170.77 43.7205 172.993 43.7205H178.551C179.662 43.7205 183.367 41.4974 183.367 40.3859V36.6808C183.367 35.9397 181.631 35.4397 180.033 35.1987L168.176 34.8282C165.953 34.8282 164.101 32.6051 164.101 31.1231C164.071 29.7605 164.157 29.031 164.471 27.7885C164.746 26.7005 166.677 25.5059 168.112 24.6176C169.121 23.9934 169.885 23.5205 169.658 23.3423C169.568 23.2716 169.378 23.1574 169.121 23.0023ZM172.993 20.3782V11.1154C172.993 9.63333 173.348 8.15128 174.475 8.15128H175.957C176.916 8.15128 177.069 8.89231 177.069 9.26282V21.8603C177.069 22.4844 176.638 22.6049 176.201 22.7274C176.119 22.7503 176.037 22.7733 175.957 22.7997H174.475C173.217 22.2824 173.127 21.5178 173.025 20.6432C173.015 20.5559 173.005 20.4675 172.993 20.3782Z" fill="#2B3336"/>
<path d="M190.444 43.9986V42.887H193.408V20.2858H190.444V19.1742H203.412V23.2499C204.593 20.8835 206.376 18.4332 207.487 18.4332H212.304C213.786 18.4332 215.638 20.6563 215.638 21.7678V26.214C215.638 27.3255 214.527 28.8076 213.786 28.8076H209.71C208.315 28.1789 207.487 27.696 207.117 26.5845C207.117 26.5845 206.534 24.4146 207.117 23.2499C207.487 22.5088 209.34 23.2499 209.34 23.2499C210.081 23.2499 209.583 21.5775 208.969 21.0268H207.117C206.376 21.0268 203.041 25.1024 203.041 26.5845V42.887H207.117V43.9986H190.444Z" fill="#2B3336"/>
<path fill-rule="evenodd" clip-rule="evenodd" d="M215.697 36.4606C215.615 37.9774 215.624 38.8278 215.697 40.3445C215.697 41.4421 218.621 44.3691 219.718 44.3691C223.467 44.8364 224.556 44.6418 226.664 44.3691C227.553 44.1439 229.223 41.4421 229.223 41.4421C229.223 41.4421 230.888 44.1439 233.244 44.3691C235.324 44.5679 238.362 44.7396 239.459 44.1439C240.15 43.7682 243.115 41.0762 243.115 40.1193V35.9541H241.287V39.6128C241.287 40.7104 241.053 41.001 240.556 41.4421C239.736 41.8112 238.362 41.0762 238.362 40.3445L238.362 25.2552C238.362 23.1487 236.169 19.4013 233.244 19.4013C233.244 19.4013 222.84 19.1742 222.475 19.1742C222.109 19.1742 220.647 19.9059 220.647 19.9059C219.352 20.5876 217.858 22.4813 217.159 23.8804C216.811 24.577 216.955 25.4982 217.132 26.6338C217.141 26.6911 217.15 26.749 217.159 26.8074C217.329 27.905 218.355 29.2561 220.083 29.7343C221.828 29.8318 222.386 29.7973 223.374 29.7343C224.175 29.6832 225.933 27.905 226.298 26.8074C226.298 26.8074 226.911 24.3484 225.933 23.5146C225.272 22.951 224.105 23.1487 224.105 23.1487V20.9535C224.47 20.2217 225.027 20.1906 225.567 20.2217H227.395C228.324 20.2217 228.492 21.6852 228.492 22.4169V31.5637C227.789 31.5907 227.145 31.6098 226.547 31.6275C223.786 31.7094 222.012 31.7619 220.083 32.4361C217.561 33.1933 215.697 34.4906 215.697 36.4606ZM225.567 41.4421L225.567 35.5882C225.567 34.1247 227.175 32.6613 228.492 32.6613C229.809 32.6613 228.492 39.9786 228.492 39.9786C228.142 41.2955 227.76 42.1162 227.029 42.1738C226.423 42.2216 225.567 42.1739 225.567 41.4421Z" fill="#2B3336"/>
<path d="M243.057 20.6562V19.1742H255.654V23.6203C257.114 20.9923 257.877 19.1742 260.1 19.1742H265.658C268.251 19.1742 269.339 21.3113 270.474 23.6203C271.98 21.147 273.068 19.1742 275.291 19.1742H280.478C283.072 19.1742 285.665 22.1383 285.665 23.9909V43.2575H289V44.3691H274.18V43.2575H276.032V24.2222C275.825 22.7739 275.662 21.7678 274.55 21.7678C273.068 21.7678 271.215 23.9909 270.845 25.8434V43.2575H273.068V44.3691H258.989V43.2575H260.841V22.8793C260.841 22.1383 260.33 21.9311 259.359 21.7678C257.877 21.7678 256.395 23.9909 256.024 25.8434L255.654 43.2575H257.877V44.3691H243.057V43.2575H246.021V20.6562H243.057Z" fill="#2B3336"/>
</svg>
